<?xml version="1.0" encoding="UTF-8" standalone="no"?><svg xmlns="http://www.w3.org/2000/svg" xmlns:xlink="http://www.w3.org/1999/xlink" contentScriptType="application/ecmascript" contentStyleType="text/css" height="494px" preserveAspectRatio="none" style="width:353px;height:494px;" version="1.1" viewBox="0 0 353 494" width="353px" zoomAndPan="magnify"><defs><filter height="300%" id="f1b25f8dxq4972" width="300%" x="-1" y="-1"><feGaussianBlur result="blurOut" stdDeviation="2.0"/><feColorMatrix in="blurOut" result="blurOut2" type="matrix" values="0 0 0 0 0 0 0 0 0 0 0 0 0 0 0 0 0 0 .4 0"/><feOffset dx="4.0" dy="4.0" in="blurOut2" result="blurOut3"/><feBlend in="SourceGraphic" in2="blurOut3" mode="normal"/></filter></defs><g><ellipse cx="138.6" cy="18" fill="#000000" filter="url(#f1b25f8dxq4972)" rx="10" ry="10" style="stroke: none; stroke-width: 1.0;"/><rect fill="#FEFECE" filter="url(#f1b25f8dxq4972)" height="40" rx="12.5" ry="12.5" style="stroke: #A80036; stroke-width: 1.5;" width="50" x="113.6" y="107"/><text fill="#000000" font-family="sans-serif" font-size="14" lengthAdjust="spacingAndGlyphs" textLength="32" x="122.6" y="132.432">Start</text><ellipse cx="144.6" cy="473" fill="none" filter="url(#f1b25f8dxq4972)" rx="10" ry="10" style="stroke: #000000; stroke-width: 1.0;"/><ellipse cx="145.1" cy="473.5" fill="#000000" rx="6" ry="6" style="stroke: none; stroke-width: 1.0;"/><rect fill="#FEFECE" filter="url(#f1b25f8dxq4972)" height="40" rx="12.5" ry="12.5" style="stroke: #A80036; stroke-width: 1.5;" width="62" x="184.6" y="336.5"/><text fill="#000000" font-family="sans-serif" font-size="14" lengthAdjust="spacingAndGlyphs" textLength="52" x="189.6" y="361.932">Blocked</text><rect fill="#FEFECE" filter="url(#f1b25f8dxq4972)" height="40" rx="12.5" ry="12.5" style="stroke: #A80036; stroke-width: 1.5;" width="50" x="281.6" y="336.5"/><text fill="#000000" font-family="sans-serif" font-size="14" lengthAdjust="spacingAndGlyphs" textLength="34" x="289.6" y="361.932">Error</text><rect fill="#FEFECE" filter="url(#f1b25f8dxq4972)" height="55.412" rx="12.5" ry="12.5" style="stroke: #A80036; stroke-width: 1.5;" width="115" x="34.1" y="329"/><line style="stroke: #A80036; stroke-width: 1.5;" x1="34.1" x2="149.1" y1="358.0679" y2="358.0679"/><text fill="#000000" font-family="sans-serif" font-size="14" lengthAdjust="spacingAndGlyphs" textLength="95" x="44.1" y="348.9659">Authenticated</text><text fill="#000000" font-family="sans-serif" font-size="12" lengthAdjust="spacingAndGlyphs" textLength="41" x="39.1" y="375.896">browse</text><polygon fill="#FEFECE" filter="url(#f1b25f8dxq4972)" points="176.6,226,188.6,238,176.6,250,164.6,238,176.6,226" style="stroke: #A80036; stroke-width: 1.5;"/><!--MD5=[a0be3251f15ef50a7257de6fc99fd504]
link *start to Start--><path d="M138.6,28.12 C138.6,44.29 138.6,78.45 138.6,101.81 " fill="none" id="*start-&gt;Start" style="stroke: #A80036; stroke-width: 1.0;"/><polygon fill="#A80036" points="138.6,106.92,142.6,97.92,138.6,101.92,134.6,97.92,138.6,106.92" style="stroke: #A80036; stroke-width: 1.0;"/><text fill="#000000" font-family="sans-serif" font-size="13" lengthAdjust="spacingAndGlyphs" textLength="25" x="139.6" y="72.897">new</text><!--MD5=[59b8b02ef644a3950ef6c5b24c2f2a03]
link Start to *end--><path d="M117.01,147.21 C71.95,189.74 -24.66,295.14 16.6,384 C38.83,431.9 101.94,458.01 130.39,467.64 " fill="none" id="Start-&gt;*end" style="stroke: #A80036; stroke-width: 1.0;"/><polygon fill="#A80036" points="135.28,469.24,127.9709,462.6387,130.5281,467.6846,125.4822,470.2418,135.28,469.24" style="stroke: #A80036; stroke-width: 1.0;"/><text fill="#000000" font-family="sans-serif" font-size="13" lengthAdjust="spacingAndGlyphs" textLength="65" x="19.6" y="294.897">disconnect</text><!--MD5=[930fa164367b7726035ba79389f8d48f]
link Blocked to *end--><path d="M203.71,376.66 C189.02,400.36 164.45,439.98 152.13,459.85 " fill="none" id="Blocked-&gt;*end" style="stroke: #A80036; stroke-width: 1.0;"/><polygon fill="#A80036" points="149.41,464.23,157.5553,458.6934,152.0472,459.982,150.7585,454.4739,149.41,464.23" style="stroke: #A80036; stroke-width: 1.0;"/><text fill="#000000" font-family="sans-serif" font-size="13" lengthAdjust="spacingAndGlyphs" textLength="65" x="180.6" y="428.897">disconnect</text><!--MD5=[7748d72ab64101d2b173fcc1f57892c5]
link Error to *end--><path d="M297.67,376.8 C288.91,393.79 274.05,418.09 254.6,433 C225.27,455.49 181.9,465.73 159.38,469.76 " fill="none" id="Error-&gt;*end" style="stroke: #A80036; stroke-width: 1.0;"/><polygon fill="#A80036" points="154.39,470.61,163.9355,473.0357,159.3185,469.7672,162.5869,465.1501,154.39,470.61" style="stroke: #A80036; stroke-width: 1.0;"/><text fill="#000000" font-family="sans-serif" font-size="13" lengthAdjust="spacingAndGlyphs" textLength="65" x="272.6" y="428.897">disconnect</text><!--MD5=[5b3f495082bfa9e08b91fc93f0e4ed16]
link Authenticated to *end--><path d="M84.27,384.09 C81.58,399.24 80.83,418.12 88.6,433 C97.39,449.84 117.13,460.88 130.66,466.78 " fill="none" id="Authenticated-&gt;*end" style="stroke: #A80036; stroke-width: 1.0;"/><polygon fill="#A80036" points="135.33,468.73,128.5686,461.5687,130.7167,466.8019,125.4836,468.95,135.33,468.73" style="stroke: #A80036; stroke-width: 1.0;"/><text fill="#000000" font-family="sans-serif" font-size="13" lengthAdjust="spacingAndGlyphs" textLength="65" x="89.6" y="428.897">disconnect</text><!--MD5=[8fd761bdf58c71255010d00fd4c3cf53]
link Error to Start--><path d="M310.27,336.32 C315.93,300.62 322.52,223.43 284.6,177 C256.34,142.4 202.79,132.09 168.99,129.11 " fill="none" id="Error-&gt;Start" style="stroke: #A80036; stroke-width: 1.0;"/><polygon fill="#A80036" points="163.74,128.69,172.3913,133.3969,168.724,129.0899,173.0311,125.4226,163.74,128.69" style="stroke: #A80036; stroke-width: 1.0;"/><text fill="#000000" font-family="sans-serif" font-size="13" lengthAdjust="spacingAndGlyphs" textLength="29" x="312.6" y="243.397">retry</text><!--MD5=[b9eb313ed18d1e15da43ab433e367168]
link Start to C_Start--><path d="M133.52,147.22 C130.8,161.27 129.18,180.5 135.6,196 C141.61,210.52 155.53,222.57 165.49,229.77 " fill="none" id="Start-&gt;C_Start" style="stroke: #A80036; stroke-width: 1.0;"/><polygon fill="#A80036" points="169.74,232.73,164.643,224.3026,165.6378,229.8713,160.0691,230.8661,169.74,232.73" style="stroke: #A80036; stroke-width: 1.0;"/><text fill="#000000" font-family="sans-serif" font-size="13" lengthAdjust="spacingAndGlyphs" textLength="143" x="136.6" y="191.897">perform_authentication</text><!--MD5=[8d3d8b8b7cbed5f46fff7594ed08da8b]
link C_Start to Blocked--><path d="M179.4,247.38 C185.2,264.69 198.69,304.99 207.46,331.2 " fill="none" id="C_Start-&gt;Blocked" style="stroke: #A80036; stroke-width: 1.0;"/><polygon fill="#A80036" points="209.15,336.24,210.0898,326.4361,207.5646,331.498,202.5026,328.9728,209.15,336.24" style="stroke: #A80036; stroke-width: 1.0;"/><!--MD5=[f36852400bb5d10aaa59c85a825e54b9]
link C_Start to Error--><path d="M182.52,244.31 C199.68,259.69 250.18,304.94 281.21,332.75 " fill="none" id="C_Start-&gt;Error" style="stroke: #A80036; stroke-width: 1.0;"/><polygon fill="#A80036" points="285.27,336.38,281.2391,327.3938,281.5472,333.0423,275.8987,333.3504,285.27,336.38" style="stroke: #A80036; stroke-width: 1.0;"/><!--MD5=[3cc56fe00c2e5bf2e3a8e2c35b990a7e]
link C_Start to Authenticated--><path d="M171.78,245.6 C160.88,260.54 133.73,297.76 114.03,324.75 " fill="none" id="C_Start-&gt;Authenticated" style="stroke: #A80036; stroke-width: 1.0;"/><polygon fill="#A80036" points="110.94,328.99,119.4706,324.0676,113.8826,324.9476,113.0026,319.3596,110.94,328.99" style="stroke: #A80036; stroke-width: 1.0;"/><!--MD5=[cbe89bcd570f9dfaaac4c75b5103a992]
@startuml
hide empty description
[*] - -> Start : new
Start - -> [*] : disconnect
Blocked - -> [*] : disconnect
Error - -> [*] : disconnect
Authenticated - -> [*] : disconnect
Error - -> Start : retry
Authenticated : browse
state C_Start <<choice>>
Start - -> C_Start: perform_authentication
C_Start - -> Blocked
C_Start - -> Error
C_Start - -> Authenticated

@enduml

PlantUML version 1.2020.02(Sun Mar 01 10:22:07 WET 2020)
(GPL source distribution)
Java Runtime: OpenJDK Runtime Environment
JVM: OpenJDK 64-Bit Server VM
Java Version: 16.0.1+9-Ubuntu-1
Operating System: Linux
Default Encoding: UTF-8
Language: en
Country: US
--></g></svg>