<?xml version="1.0" encoding="UTF-8" standalone="no"?><svg xmlns="http://www.w3.org/2000/svg" xmlns:xlink="http://www.w3.org/1999/xlink" contentScriptType="application/ecmascript" contentStyleType="text/css" height="1192px" preserveAspectRatio="none" style="width:470px;height:1192px;" version="1.1" viewBox="0 0 470 1192" width="470px" zoomAndPan="magnify"><defs><filter height="300%" id="fx1530fpwlw33" width="300%" x="-1" y="-1"><feGaussianBlur result="blurOut" stdDeviation="2.0"/><feColorMatrix in="blurOut" result="blurOut2" type="matrix" values="0 0 0 0 0 0 0 0 0 0 0 0 0 0 0 0 0 0 .4 0"/><feOffset dx="4.0" dy="4.0" in="blurOut2" result="blurOut3"/><feBlend in="SourceGraphic" in2="blurOut3" mode="normal"/></filter></defs><g><ellipse cx="320" cy="18" fill="#000000" filter="url(#fx1530fpwlw33)" rx="10" ry="10" style="stroke: none; stroke-width: 1.0;"/><rect fill="#FEFECE" filter="url(#fx1530fpwlw33)" height="40" rx="12.5" ry="12.5" style="stroke: #A80036; stroke-width: 1.5;" width="119" x="260.5" y="107"/><text fill="#000000" font-family="sans-serif" font-size="14" lengthAdjust="spacingAndGlyphs" textLength="109" x="265.5" y="132.432">AuctionRunning</text><rect fill="#FEFECE" filter="url(#fx1530fpwlw33)" height="40" rx="12.5" ry="12.5" style="stroke: #A80036; stroke-width: 1.5;" width="50" x="51" y="1042"/><text fill="#000000" font-family="sans-serif" font-size="14" lengthAdjust="spacingAndGlyphs" textLength="26" x="63" y="1067.432">End</text><ellipse cx="76" cy="1171" fill="none" filter="url(#fx1530fpwlw33)" rx="10" ry="10" style="stroke: #000000; stroke-width: 1.0;"/><ellipse cx="76.5" cy="1171.5" fill="#000000" rx="6" ry="6" style="stroke: none; stroke-width: 1.0;"/><rect fill="#FEFECE" filter="url(#fx1530fpwlw33)" height="40" rx="12.5" ry="12.5" style="stroke: #A80036; stroke-width: 1.5;" width="75" x="292.5" y="719"/><text fill="#000000" font-family="sans-serif" font-size="14" lengthAdjust="spacingAndGlyphs" textLength="65" x="297.5" y="744.432">Withdraw</text><rect fill="#FEFECE" filter="url(#fx1530fpwlw33)" height="40" rx="12.5" ry="12.5" style="stroke: #A80036; stroke-width: 1.5;" width="50" x="59" y="923"/><text fill="#000000" font-family="sans-serif" font-size="14" lengthAdjust="spacingAndGlyphs" textLength="27" x="70.5" y="948.432">Lost</text><rect fill="#FEFECE" filter="url(#fx1530fpwlw33)" height="40" rx="12.5" ry="12.5" style="stroke: #A80036; stroke-width: 1.5;" width="59" x="144.5" y="923"/><text fill="#000000" font-family="sans-serif" font-size="14" lengthAdjust="spacingAndGlyphs" textLength="49" x="149.5" y="948.432">Winner</text><polygon fill="#FEFECE" filter="url(#fx1530fpwlw33)" points="202,430,214,442,202,454,190,442,202,430" style="stroke: #A80036; stroke-width: 1.5;"/><rect fill="#FEFECE" filter="url(#fx1530fpwlw33)" height="40" rx="12.5" ry="12.5" style="stroke: #A80036; stroke-width: 1.5;" width="58" x="173" y="311"/><text fill="#000000" font-family="sans-serif" font-size="14" lengthAdjust="spacingAndGlyphs" textLength="48" x="178" y="336.432">NoBids</text><rect fill="#FEFECE" filter="url(#fx1530fpwlw33)" height="40" rx="12.5" ry="12.5" style="stroke: #A80036; stroke-width: 1.5;" width="83" x="123.5" y="515"/><text fill="#000000" font-family="sans-serif" font-size="14" lengthAdjust="spacingAndGlyphs" textLength="73" x="128.5" y="540.432">HasBidded</text><polygon fill="#FEFECE" filter="url(#fx1530fpwlw33)" points="165,634,177,646,165,658,153,646,165,634" style="stroke: #A80036; stroke-width: 1.5;"/><rect fill="#FEFECE" filter="url(#fx1530fpwlw33)" height="40" rx="12.5" ry="12.5" style="stroke: #A80036; stroke-width: 1.5;" width="99" x="115.5" y="719"/><text fill="#000000" font-family="sans-serif" font-size="14" lengthAdjust="spacingAndGlyphs" textLength="89" x="120.5" y="744.432">CheckWinner</text><polygon fill="#FEFECE" filter="url(#fx1530fpwlw33)" points="165,838,177,850,165,862,153,850,165,838" style="stroke: #A80036; stroke-width: 1.5;"/><polygon fill="#FEFECE" filter="url(#fx1530fpwlw33)" points="202,226,214,238,202,250,190,238,202,226" style="stroke: #A80036; stroke-width: 1.5;"/><!--MD5=[084479511bae0a38bbbb5d1881e56af3]
link *start to AuctionRunning--><path d="M320,28.12 C320,44.29 320,78.45 320,101.81 " fill="none" id="*start-&gt;AuctionRunning" style="stroke: #A80036; stroke-width: 1.0;"/><polygon fill="#A80036" points="320,106.92,324,97.92,320,101.92,316,97.92,320,106.92" style="stroke: #A80036; stroke-width: 1.0;"/><text fill="#000000" font-family="sans-serif" font-size="13" lengthAdjust="spacingAndGlyphs" textLength="28" x="321" y="72.897">start</text><!--MD5=[e940aefad32cde5d874e646c70da8b5c]
link End to *end--><path d="M76,1082.13 C76,1103.16 76,1136.47 76,1155.46 " fill="none" id="End-&gt;*end" style="stroke: #A80036; stroke-width: 1.0;"/><polygon fill="#A80036" points="76,1160.87,80,1151.87,76,1155.87,72,1151.87,76,1160.87" style="stroke: #A80036; stroke-width: 1.0;"/><text fill="#000000" font-family="sans-serif" font-size="13" lengthAdjust="spacingAndGlyphs" textLength="23" x="77" y="1126.897">end</text><!--MD5=[bcaa64e12c00d54f849d9b1308a0ae62]
link Withdraw to AuctionRunning--><path d="M357.25,718.91 C377.27,702.44 401,676.66 401,647 C401,237 401,237 401,237 C401,201.79 373.43,170.56 350.46,150.65 " fill="none" id="Withdraw-&gt;AuctionRunning" style="stroke: #A80036; stroke-width: 1.0;"/><polygon fill="#A80036" points="346.52,147.31,350.7694,156.1949,350.3233,150.5557,355.9626,150.1096,346.52,147.31" style="stroke: #A80036; stroke-width: 1.0;"/><text fill="#000000" font-family="sans-serif" font-size="13" lengthAdjust="spacingAndGlyphs" textLength="56" x="402" y="447.397">withdraw</text><!--MD5=[3ac6e9a741e9d66cef7b71bd47794679]
link Lost to End--><path d="M78.61,963.39 C76.4,972.32 74.1,983.12 73,993 C71.39,1007.52 72.03,1023.87 73.13,1036.89 " fill="none" id="Lost-&gt;End" style="stroke: #A80036; stroke-width: 1.0;"/><polygon fill="#A80036" points="73.59,1041.9,76.7515,1032.5724,73.1335,1036.9209,68.7849,1033.3028,73.59,1041.9" style="stroke: #A80036; stroke-width: 1.0;"/><text fill="#000000" font-family="sans-serif" font-size="13" lengthAdjust="spacingAndGlyphs" textLength="56" x="74" y="1007.897">withdraw</text><!--MD5=[db6e53c58c147f79a4674d4664b0f0cf]
link Winner to End--><path d="M165.38,963.05 C158.38,977.36 147.61,997 135,1012 C126.3,1022.35 115.22,1032.19 105.02,1040.31 " fill="none" id="Winner-&gt;End" style="stroke: #A80036; stroke-width: 1.0;"/><polygon fill="#A80036" points="101.01,1043.45,110.5585,1041.0364,104.9421,1040.3615,105.617,1034.7451,101.01,1043.45" style="stroke: #A80036; stroke-width: 1.0;"/><text fill="#000000" font-family="sans-serif" font-size="13" lengthAdjust="spacingAndGlyphs" textLength="21" x="149" y="1007.897">win</text><!--MD5=[38a2d6c827cf0981846b91eb7b09f704]
link NoBids to C_NoBids--><path d="M202,351.24 C202,372.13 202,405.14 202,424.77 " fill="none" id="NoBids-&gt;C_NoBids" style="stroke: #A80036; stroke-width: 1.0;"/><polygon fill="#A80036" points="202,429.93,206,420.93,202,424.93,198,420.93,202,429.93" style="stroke: #A80036; stroke-width: 1.0;"/><text fill="#000000" font-family="sans-serif" font-size="13" lengthAdjust="spacingAndGlyphs" textLength="19" x="203" y="395.897">bid</text><!--MD5=[14f3bd99f7176ddff19228449ca7cd92]
link C_NoBids to HasBidded--><path d="M198.72,451.08 C193.4,464.15 182.71,490.44 174.78,509.94 " fill="none" id="C_NoBids-&gt;HasBidded" style="stroke: #A80036; stroke-width: 1.0;"/><polygon fill="#A80036" points="172.83,514.73,179.93,507.9044,174.7165,510.0995,172.5213,504.886,172.83,514.73" style="stroke: #A80036; stroke-width: 1.0;"/><!--MD5=[eaf9f25ff05a2a1587281053418fdbff]
link C_NoBids to Withdraw--><path d="M206.29,449.87 C218.76,470.03 255.56,530.97 279,585 C298.17,629.19 314.61,683.09 323.33,713.69 " fill="none" id="C_NoBids-&gt;Withdraw" style="stroke: #A80036; stroke-width: 1.0;"/><polygon fill="#A80036" points="324.76,718.76,326.168,709.0123,323.4034,713.9476,318.4681,711.1829,324.76,718.76" style="stroke: #A80036; stroke-width: 1.0;"/><!--MD5=[b93e0ae61bc722b741d4e926f760786c]
link HasBidded to C_HasBidded--><path d="M183.62,555.33 C190.49,563.75 197.45,574.17 201,585 C203.63,593.02 203.98,596.1 201,604 C195.89,617.56 184.03,629.55 175.32,637.01 " fill="none" id="HasBidded-&gt;C_HasBidded" style="stroke: #A80036; stroke-width: 1.0;"/><polygon fill="#A80036" points="171.33,640.3,180.8212,637.67,175.1909,637.123,175.738,631.4926,171.33,640.3" style="stroke: #A80036; stroke-width: 1.0;"/><text fill="#000000" font-family="sans-serif" font-size="13" lengthAdjust="spacingAndGlyphs" textLength="65" x="205" y="599.897">has_ended</text><!--MD5=[e429c2c83911b1e6390492d7de971172]
link C_HasBidded to HasBidded--><path d="M158.96,639.4 C152.08,624.99 150.49,585.97 154.19,560.2 " fill="none" id="C_HasBidded-&gt;HasBidded" style="stroke: #A80036; stroke-width: 1.0;"/><polygon fill="#A80036" points="155.01,555.24,149.6234,563.4853,154.2111,560.1758,157.5207,564.7635,155.01,555.24" style="stroke: #A80036; stroke-width: 1.0;"/><!--MD5=[b93e0ae61bc722b741d4e926f760786c]
link HasBidded to C_HasBidded--><path d="M123.92,555.11 C103.43,567.49 85.1,584.85 96,604 C107.64,624.46 133.96,635.77 150.52,641.1 " fill="none" id="HasBidded-&gt;C_HasBidded-1" style="stroke: #A80036; stroke-width: 1.0;"/><polygon fill="#A80036" points="155.72,642.68,148.2753,636.232,150.9368,641.2236,145.9451,643.8851,155.72,642.68" style="stroke: #A80036; stroke-width: 1.0;"/><text fill="#000000" font-family="sans-serif" font-size="13" lengthAdjust="spacingAndGlyphs" textLength="59" x="97" y="599.897">check_bid</text><!--MD5=[e429c2c83911b1e6390492d7de971172]
link C_HasBidded to HasBidded--><path d="M171.17,639.83 C178.64,625.8 180.4,586.29 176.45,560.25 " fill="none" id="C_HasBidded-&gt;HasBidded-1" style="stroke: #A80036; stroke-width: 1.0;"/><polygon fill="#A80036" points="175.58,555.24,173.1543,564.7855,176.4228,560.1685,181.0399,563.4369,175.58,555.24" style="stroke: #A80036; stroke-width: 1.0;"/><!--MD5=[f93bc2bc035491e93a9a25d61e65c7c1]
link C_HasBidded to CheckWinner--><path d="M165,658.16 C165,671.84 165,695.41 165,713.41 " fill="none" id="C_HasBidded-&gt;CheckWinner" style="stroke: #A80036; stroke-width: 1.0;"/><polygon fill="#A80036" points="165,718.8,169,709.8,165,713.8,161,709.8,165,718.8" style="stroke: #A80036; stroke-width: 1.0;"/><!--MD5=[38cbd415128b391d082a94edee45af69]
link C_HasBidded to Withdraw--><path d="M172.09,650.91 C192.18,661.99 250.63,694.23 290.49,716.21 " fill="none" id="C_HasBidded-&gt;Withdraw" style="stroke: #A80036; stroke-width: 1.0;"/><polygon fill="#A80036" points="295.26,718.84,289.3047,710.9956,290.8798,716.4288,285.4467,718.0039,295.26,718.84" style="stroke: #A80036; stroke-width: 1.0;"/><!--MD5=[5818b13c306916c17bea3a63fdb050bb]
link CheckWinner to C_CheckWinner--><path d="M165,759.24 C165,780.13 165,813.14 165,832.77 " fill="none" id="CheckWinner-&gt;C_CheckWinner" style="stroke: #A80036; stroke-width: 1.0;"/><polygon fill="#A80036" points="165,837.93,169,828.93,165,832.93,161,828.93,165,837.93" style="stroke: #A80036; stroke-width: 1.0;"/><text fill="#000000" font-family="sans-serif" font-size="13" lengthAdjust="spacingAndGlyphs" textLength="85" x="166" y="803.897">is_highest_bid</text><!--MD5=[9d581f2d3f506c85a6f6a5b2857db7a1]
link C_CheckWinner to Winner--><path d="M166,861.09 C167.34,874.71 169.79,899.41 171.62,917.95 " fill="none" id="C_CheckWinner-&gt;Winner" style="stroke: #A80036; stroke-width: 1.0;"/><polygon fill="#A80036" points="172.12,923,175.2259,913.6537,171.6338,918.0237,167.2638,914.4316,172.12,923" style="stroke: #A80036; stroke-width: 1.0;"/><!--MD5=[07fc9aae7587bcae082cde24da97b574]
link C_CheckWinner to Lost--><path d="M159.69,856.97 C148.68,869.33 122.91,898.28 104.5,918.97 " fill="none" id="C_CheckWinner-&gt;Lost" style="stroke: #A80036; stroke-width: 1.0;"/><polygon fill="#A80036" points="101.15,922.73,110.1276,918.6799,104.4798,919.0001,104.1597,913.3523,101.15,922.73" style="stroke: #A80036; stroke-width: 1.0;"/><!--MD5=[83163b8890ef4b8816ae796f7ef2f70b]
link AuctionRunning to C_AuctionRunning--><path d="M299.18,147.24 C273.59,170.87 231.21,210.02 212.01,227.76 " fill="none" id="AuctionRunning-&gt;C_AuctionRunning" style="stroke: #A80036; stroke-width: 1.0;"/><polygon fill="#A80036" points="208.06,231.4,217.3812,228.2196,211.7285,228.0027,211.9455,222.35,208.06,231.4" style="stroke: #A80036; stroke-width: 1.0;"/><text fill="#000000" font-family="sans-serif" font-size="13" lengthAdjust="spacingAndGlyphs" textLength="65" x="265" y="191.897">has_ended</text><!--MD5=[fb88882fdbebb062bbee833c3d74de43]
link C_AuctionRunning to NoBids--><path d="M202,250.16 C202,263.84 202,287.41 202,305.41 " fill="none" id="C_AuctionRunning-&gt;NoBids" style="stroke: #A80036; stroke-width: 1.0;"/><polygon fill="#A80036" points="202,310.8,206,301.8,202,305.8,198,301.8,202,310.8" style="stroke: #A80036; stroke-width: 1.0;"/><!--MD5=[23a4fa6f089da88d35e7dbe61763b89f]
link C_AuctionRunning to End--><path d="M190.9,239 C149.44,239.65 6,247.84 6,330 C6,330 6,330 6,944 C6,980.92 31.99,1016.28 52.29,1038.28 " fill="none" id="C_AuctionRunning-&gt;End" style="stroke: #A80036; stroke-width: 1.0;"/><polygon fill="#A80036" points="55.75,1041.96,52.4945,1032.6647,52.3232,1038.319,46.6689,1038.1477,55.75,1041.96" style="stroke: #A80036; stroke-width: 1.0;"/><!--MD5=[78b42506635bee6ef7128a812fc5393a]
@startuml
hide empty description
[*] - -> AuctionRunning : start
End - -> [*] : end
Withdraw - -> AuctionRunning : withdraw
Lost - -> End : withdraw
Winner - -> End : win
state C_NoBids <<choice>>
NoBids - -> C_NoBids: bid
C_NoBids - -> HasBidded
C_NoBids - -> Withdraw

state C_HasBidded <<choice>>
HasBidded - -> C_HasBidded: has_ended
C_HasBidded - -> HasBidded
C_HasBidded - -> CheckWinner

state C_HasBidded <<choice>>
HasBidded - -> C_HasBidded: check_bid
C_HasBidded - -> Withdraw
C_HasBidded - -> HasBidded

state C_CheckWinner <<choice>>
CheckWinner - -> C_CheckWinner: is_highest_bid
C_CheckWinner - -> Winner
C_CheckWinner - -> Lost

state C_AuctionRunning <<choice>>
AuctionRunning - -> C_AuctionRunning: has_ended
C_AuctionRunning - -> NoBids
C_AuctionRunning - -> End

@enduml

PlantUML version 1.2020.02(Sun Mar 01 10:22:07 WET 2020)
(GPL source distribution)
Java Runtime: OpenJDK Runtime Environment
JVM: OpenJDK 64-Bit Server VM
Java Version: 16.0.1+9-Ubuntu-1
Operating System: Linux
Default Encoding: UTF-8
Language: en
Country: US
--></g></svg>