<?xml version="1.0" encoding="UTF-8" standalone="no"?><svg xmlns="http://www.w3.org/2000/svg" xmlns:xlink="http://www.w3.org/1999/xlink" contentScriptType="application/ecmascript" contentStyleType="text/css" height="292px" preserveAspectRatio="none" style="width:171px;height:292px;" version="1.1" viewBox="0 0 171 292" width="171px" zoomAndPan="magnify"><defs><filter height="300%" id="f191jp6sq9yz3g" width="300%" x="-1" y="-1"><feGaussianBlur result="blurOut" stdDeviation="2.0"/><feColorMatrix in="blurOut" result="blurOut2" type="matrix" values="0 0 0 0 0 0 0 0 0 0 0 0 0 0 0 0 0 0 .4 0"/><feOffset dx="4.0" dy="4.0" in="blurOut2" result="blurOut3"/><feBlend in="SourceGraphic" in2="blurOut3" mode="normal"/></filter></defs><g><ellipse cx="81" cy="18" fill="#000000" filter="url(#f191jp6sq9yz3g)" rx="10" ry="10" style="stroke: none; stroke-width: 1.0;"/><rect fill="#FEFECE" filter="url(#f191jp6sq9yz3g)" height="40" rx="12.5" ry="12.5" style="stroke: #A80036; stroke-width: 1.5;" width="50" x="56" y="107"/><text fill="#000000" font-family="sans-serif" font-size="14" lengthAdjust="spacingAndGlyphs" textLength="40" x="61" y="132.432">RecvB</text><ellipse cx="16" cy="253.5" fill="none" filter="url(#f191jp6sq9yz3g)" rx="10" ry="10" style="stroke: #000000; stroke-width: 1.0;"/><ellipse cx="16.5" cy="254" fill="#000000" rx="6" ry="6" style="stroke: none; stroke-width: 1.0;"/><rect fill="#FEFECE" filter="url(#f191jp6sq9yz3g)" height="55.412" rx="12.5" ry="12.5" style="stroke: #A80036; stroke-width: 1.5;" width="73" x="86.5" y="226"/><line style="stroke: #A80036; stroke-width: 1.5;" x1="86.5" x2="159.5" y1="255.0679" y2="255.0679"/><text fill="#000000" font-family="sans-serif" font-size="14" lengthAdjust="spacingAndGlyphs" textLength="43" x="101.5" y="245.9659">SendB</text><text fill="#000000" font-family="sans-serif" font-size="12" lengthAdjust="spacingAndGlyphs" textLength="53" x="91.5" y="272.896">get_value</text><!--MD5=[954e26017addaafe20c29488873d22ec]
link *start to RecvB--><path d="M81,28.12 C81,44.29 81,78.45 81,101.81 " fill="none" id="*start-&gt;RecvB" style="stroke: #A80036; stroke-width: 1.0;"/><polygon fill="#A80036" points="81,106.92,85,97.92,81,101.92,77,97.92,81,106.92" style="stroke: #A80036; stroke-width: 1.0;"/><text fill="#000000" font-family="sans-serif" font-size="13" lengthAdjust="spacingAndGlyphs" textLength="25" x="82" y="72.897">new</text><!--MD5=[21b372c92598b95a59a88408ed4b1174]
link RecvB to *end--><path d="M60.4,147.45 C52.45,155.89 43.88,166.28 38,177 C27.14,196.79 21.13,222.5 18.24,238.24 " fill="none" id="RecvB-&gt;*end" style="stroke: #A80036; stroke-width: 1.0;"/><polygon fill="#A80036" points="17.37,243.17,22.8759,235.0039,18.2406,238.2464,14.9981,233.611,17.37,243.17" style="stroke: #A80036; stroke-width: 1.0;"/><text fill="#000000" font-family="sans-serif" font-size="13" lengthAdjust="spacingAndGlyphs" textLength="23" x="39" y="191.897">end</text><!--MD5=[06e9cf0410f5e355ab73ddf000929cd8]
link SendB to RecvB--><path d="M120.26,225.71 C118.21,211.01 114.73,192.65 109,177 C105.87,168.47 101.34,159.69 96.82,151.96 " fill="none" id="SendB-&gt;RecvB" style="stroke: #A80036; stroke-width: 1.0;"/><polygon fill="#A80036" points="94.03,147.29,95.2305,157.0654,96.6025,151.5775,102.0904,152.9495,94.03,147.29" style="stroke: #A80036; stroke-width: 1.0;"/><text fill="#000000" font-family="sans-serif" font-size="13" lengthAdjust="spacingAndGlyphs" textLength="29" x="115" y="191.897">send</text><!--MD5=[1e9cdc83db6e75d2aa564e5108459466]
link RecvB to SendB--><path d="M74.57,147.05 C70.91,161.02 68.11,180.21 74,196 C77.45,205.24 83.16,213.97 89.49,221.67 " fill="none" id="RecvB-&gt;SendB" style="stroke: #A80036; stroke-width: 1.0;"/><polygon fill="#A80036" points="93.06,225.85,90.2399,216.4135,89.806,222.0537,84.1659,221.6199,93.06,225.85" style="stroke: #A80036; stroke-width: 1.0;"/><text fill="#000000" font-family="sans-serif" font-size="13" lengthAdjust="spacingAndGlyphs" textLength="25" x="75" y="191.897">recv</text><!--MD5=[dd08b2bab5bd2d4ff81e1cc914bf9dce]
@startuml
hide empty description
[*] - -> RecvB : new
RecvB - -> [*] : end
SendB - -> RecvB : send
SendB : get_value
RecvB - -> SendB : recv
@enduml

PlantUML version 1.2020.02(Sun Mar 01 10:22:07 WET 2020)
(GPL source distribution)
Java Runtime: OpenJDK Runtime Environment
JVM: OpenJDK 64-Bit Server VM
Java Version: 16.0.1+9-Ubuntu-1
Operating System: Linux
Default Encoding: UTF-8
Language: en
Country: US
--></g></svg>