<?xml version="1.0" encoding="UTF-8" standalone="no"?><svg xmlns="http://www.w3.org/2000/svg" xmlns:xlink="http://www.w3.org/1999/xlink" contentScriptType="application/ecmascript" contentStyleType="text/css" height="292px" preserveAspectRatio="none" style="width:155px;height:292px;" version="1.1" viewBox="0 0 155 292" width="155px" zoomAndPan="magnify"><defs><filter height="300%" id="f1vj87qjz8dokt" width="300%" x="-1" y="-1"><feGaussianBlur result="blurOut" stdDeviation="2.0"/><feColorMatrix in="blurOut" result="blurOut2" type="matrix" values="0 0 0 0 0 0 0 0 0 0 0 0 0 0 0 0 0 0 .4 0"/><feOffset dx="4.0" dy="4.0" in="blurOut2" result="blurOut3"/><feBlend in="SourceGraphic" in2="blurOut3" mode="normal"/></filter></defs><g><ellipse cx="81" cy="18" fill="#000000" filter="url(#f1vj87qjz8dokt)" rx="10" ry="10" style="stroke: none; stroke-width: 1.0;"/><rect fill="#FEFECE" filter="url(#f1vj87qjz8dokt)" height="55.412" rx="12.5" ry="12.5" style="stroke: #A80036; stroke-width: 1.5;" width="73" x="44.5" y="107"/><line style="stroke: #A80036; stroke-width: 1.5;" x1="44.5" x2="117.5" y1="136.0679" y2="136.0679"/><text fill="#000000" font-family="sans-serif" font-size="14" lengthAdjust="spacingAndGlyphs" textLength="43" x="59.5" y="126.9659">SendA</text><text fill="#000000" font-family="sans-serif" font-size="12" lengthAdjust="spacingAndGlyphs" textLength="53" x="49.5" y="153.896">get_value</text><ellipse cx="16" cy="261" fill="none" filter="url(#f1vj87qjz8dokt)" rx="10" ry="10" style="stroke: #000000; stroke-width: 1.0;"/><ellipse cx="16.5" cy="261.5" fill="#000000" rx="6" ry="6" style="stroke: none; stroke-width: 1.0;"/><rect fill="#FEFECE" filter="url(#f1vj87qjz8dokt)" height="40" rx="12.5" ry="12.5" style="stroke: #A80036; stroke-width: 1.5;" width="50" x="94" y="241"/><text fill="#000000" font-family="sans-serif" font-size="14" lengthAdjust="spacingAndGlyphs" textLength="40" x="99" y="266.432">RecvA</text><!--MD5=[4d4b43b0f967861c9ed48b624b56c96d]
link *start to SendA--><path d="M81,28.37 C81,44.23 81,77.04 81,101.82 " fill="none" id="*start-&gt;SendA" style="stroke: #A80036; stroke-width: 1.0;"/><polygon fill="#A80036" points="81,106.97,85,97.97,81,101.97,77,97.97,81,106.97" style="stroke: #A80036; stroke-width: 1.0;"/><text fill="#000000" font-family="sans-serif" font-size="13" lengthAdjust="spacingAndGlyphs" textLength="25" x="82" y="72.897">new</text><!--MD5=[a39d57d5c9e46a1a4b214874f67be420]
link SendA to *end--><path d="M59.95,162.16 C53.34,171.29 46.37,181.79 41,192 C31.61,209.85 24.18,232.01 19.93,246.08 " fill="none" id="SendA-&gt;*end" style="stroke: #A80036; stroke-width: 1.0;"/><polygon fill="#A80036" points="18.52,250.88,24.9006,243.3775,19.9331,246.0839,17.2268,241.1164,18.52,250.88" style="stroke: #A80036; stroke-width: 1.0;"/><text fill="#000000" font-family="sans-serif" font-size="13" lengthAdjust="spacingAndGlyphs" textLength="23" x="42" y="206.897">end</text><!--MD5=[e24080923d734c6487c5ea6598e473fc]
link SendA to RecvA--><path d="M75.1,162.12 C73,176.93 72.36,195.46 78,211 C81.39,220.32 87.41,229.11 93.82,236.61 " fill="none" id="SendA-&gt;RecvA" style="stroke: #A80036; stroke-width: 1.0;"/><polygon fill="#A80036" points="97.4,240.63,94.3903,231.2523,94.0702,236.9001,88.4224,236.5799,97.4,240.63" style="stroke: #A80036; stroke-width: 1.0;"/><text fill="#000000" font-family="sans-serif" font-size="13" lengthAdjust="spacingAndGlyphs" textLength="29" x="79" y="206.897">send</text><!--MD5=[44cafcb7907ac195b30d32ed1fec20de]
link RecvA to SendA--><path d="M119.46,240.82 C119.28,226.96 117.96,207.96 113,192 C110.29,183.28 106.09,174.42 101.61,166.39 " fill="none" id="RecvA-&gt;SendA" style="stroke: #A80036; stroke-width: 1.0;"/><polygon fill="#A80036" points="99.11,162.01,100.1092,171.808,101.5938,166.3495,107.0523,167.834,99.11,162.01" style="stroke: #A80036; stroke-width: 1.0;"/><text fill="#000000" font-family="sans-serif" font-size="13" lengthAdjust="spacingAndGlyphs" textLength="25" x="118" y="206.897">recv</text><!--MD5=[56da100f04efca56427c1adcbcc5c2de]
@startuml
hide empty description
[*] - -> SendA : new
SendA - -> [*] : end
SendA - -> RecvA : send
SendA : get_value
RecvA - -> SendA : recv
@enduml

PlantUML version 1.2020.02(Sun Mar 01 10:22:07 WET 2020)
(GPL source distribution)
Java Runtime: OpenJDK Runtime Environment
JVM: OpenJDK 64-Bit Server VM
Java Version: 16.0.1+9-Ubuntu-1
Operating System: Linux
Default Encoding: UTF-8
Language: en
Country: US
--></g></svg>